<svg width="10" height="16" viewBox="0 0 10 16" fill="none" xmlns="http://www.w3.org/2000/svg">
<path d="M5 15.9166C3.65555 15.9166 2.55555 15.7241 1.7 15.3391C0.844442 14.9536 0.416664 14.4516 0.416664 13.8333C0.416664 13.5072 0.556664 13.2091 0.836664 12.9391C1.11666 12.6691 1.50389 12.4353 1.99833 12.2375L2.2375 13.035C1.9475 13.1578 1.72139 13.2875 1.55916 13.4241C1.39694 13.5603 1.29694 13.6966 1.25916 13.8333C1.35472 14.2055 1.75805 14.5069 2.46916 14.7375C3.18028 14.968 4.02389 15.0833 5 15.0833C5.965 15.0833 6.80666 14.968 7.525 14.7375C8.24333 14.5064 8.65 14.205 8.745 13.8333C8.70778 13.6966 8.60778 13.5628 8.445 13.4316C8.28222 13.3005 8.05639 13.1683 7.7675 13.035L8.0225 12.2375C8.51694 12.4347 8.90083 12.6686 9.17416 12.9391C9.4475 13.2097 9.58389 13.5078 9.58333 13.8333C9.58333 14.4516 9.15555 14.9536 8.3 15.3391C7.44444 15.7247 6.34444 15.9172 5 15.9166ZM5 12.9041C4.87944 12.9041 4.76722 12.8589 4.66333 12.7683C4.55944 12.6778 4.48 12.5669 4.425 12.4358C4.06278 11.5564 3.65444 10.818 3.2 10.2208C2.74555 9.62359 2.31083 9.05137 1.89583 8.50415C1.49416 7.95748 1.15416 7.38998 0.875831 6.80165C0.597498 6.21331 0.458331 5.48776 0.458331 4.62498C0.458331 3.35387 0.89722 2.27887 1.775 1.39998C2.65444 0.522202 3.72944 0.083313 5 0.083313C6.27055 0.083313 7.34555 0.522202 8.225 1.39998C9.10444 2.27776 9.54333 3.35276 9.54167 4.62498C9.54167 5.4872 9.40611 6.21276 9.135 6.80165C8.86333 7.39054 8.51972 7.95831 8.10416 8.50498C7.7025 9.05165 7.27111 9.62387 6.81 10.2216C6.34889 10.8194 5.93722 11.5575 5.575 12.4358C5.51944 12.5675 5.44 12.6786 5.33666 12.7691C5.23333 12.8597 5.12111 12.9047 5 12.9041ZM5 5.89915C5.35778 5.89915 5.65972 5.77637 5.90583 5.53081C6.15139 5.2847 6.27416 4.98276 6.27416 4.62498C6.27416 4.2672 6.15139 3.96526 5.90583 3.71915C5.66028 3.47304 5.35833 3.35026 5 3.35081C4.64166 3.35137 4.33972 3.47415 4.09416 3.71915C3.84861 3.96526 3.72583 4.2672 3.72583 4.62498C3.72583 4.98276 3.84861 5.2847 4.09416 5.53081C4.33972 5.77692 4.64166 5.8997 5 5.89915Z" fill="#626262"/>
</svg>
